<?xml version="1.0" encoding="UTF-8" standalone="no" ?>
<!DOCTYPE svg PUBLIC "-//W3C//DTD SVG 1.1//EN" "http://www.w3.org/Graphics/SVG/1.1/DTD/svg11.dtd">
<svg xmlns="http://www.w3.org/2000/svg" xmlns:xlink="http://www.w3.org/1999/xlink" version="1.1" width="1080" height="1080" viewBox="0 0 1080 1080" xml:space="preserve">
<desc>Created with Fabric.js 5.2.4</desc>
<defs>
</defs>
<g transform="matrix(1 0 0 1 540 540)" id="50da321b-7490-47a6-ab47-8bc51b4d0ec6"  >
<rect style="stroke: none; stroke-width: 1; stroke-dasharray: none; stroke-linecap: butt; stroke-dashoffset: 0; stroke-linejoin: miter; stroke-miterlimit: 4; fill: rgb(255,255,255); fill-rule: nonzero; opacity: 1; visibility: hidden;" vector-effect="non-scaling-stroke"  x="-540" y="-540" rx="0" ry="0" width="1080" height="1080" />
</g>
<g transform="matrix(1 0 0 1 540 540)" id="e9c9497a-1e84-4187-bcca-2f01803413f9"  >
</g>
<g transform="matrix(1 0 0 1 540 540)"  >
<g style="" vector-effect="non-scaling-stroke"   >
		<g transform="matrix(1 0 0 1 -69.18 7.25)"  >
<path style="stroke: rgb(10,173,10); stroke-width: 1.28276; stroke-dasharray: none; stroke-linecap: round; stroke-dashoffset: 0; stroke-linejoin: miter; stroke-miterlimit: 10; fill: rgb(255,255,255); fill-rule: nonzero; opacity: 1;" vector-effect="non-scaling-stroke"  transform=" translate(-8.12, -22.19)" d="M 8.12346 24.8618 C 9.5969 24.8618 10.7914 23.6674 10.7914 22.194 C 10.7914 20.7205 9.5969 19.526 8.12346 19.526 C 6.65002 19.526 5.45557 20.7205 5.45557 22.194 C 5.45557 23.6674 6.65002 24.8618 8.12346 24.8618 Z" stroke-linecap="round" />
</g>
		<g transform="matrix(1 0 0 1 -62.26 -5.76)"  >
<path style="stroke: rgb(10,173,10); stroke-width: 1.28276; stroke-dasharray: none; stroke-linecap: round; stroke-dashoffset: 0; stroke-linejoin: miter; stroke-miterlimit: 10; fill: rgb(255,255,255); fill-rule: nonzero; opacity: 1;" vector-effect="non-scaling-stroke"  transform=" translate(-15.05, -9.19)" d="M 6.97607 9.18945 L 23.1146 9.18945" stroke-linecap="round" />
</g>
		<g transform="matrix(1 0 0 1 -61.9 -2.53)"  >
<path style="stroke: rgb(10,173,10); stroke-width: 1.28276; stroke-dasharray: none; stroke-linecap: round; stroke-dashoffset: 0; stroke-linejoin: miter; stroke-miterlimit: 10; fill: rgb(255,255,255); fill-rule: nonzero; opacity: 1;" vector-effect="non-scaling-stroke"  transform=" translate(-15.4, -12.42)" d="M 8.38892 12.4171 L 22.4092 12.4171" stroke-linecap="round" />
</g>
		<g transform="matrix(1 0 0 1 -58.16 -3.5)"  >
<path style="stroke: rgb(10,173,10); stroke-width: 1.28276; stroke-dasharray: none; stroke-linecap: round; stroke-dashoffset: 0; stroke-linejoin: miter; stroke-miterlimit: 10; fill: rgb(255,255,255); fill-rule: nonzero; opacity: 1;" vector-effect="non-scaling-stroke"  transform=" translate(-19.15, -11.45)" d="M 7.66113 19.525 L 18.1138 19.525 C 19.2586 19.525 20.2784 18.7977 20.6505 17.7144 L 24.9585 5.1809 C 25.3307 4.09761 26.3495 3.37036 27.4953 3.37036 L 30.6292 3.37036" stroke-linecap="round" />
</g>
		<g transform="matrix(1 0 0 1 -69.18 7.25)"  >
<path style="stroke: rgb(10,173,10); stroke-width: 1.06897; stroke-dasharray: none; stroke-linecap: round; stroke-dashoffset: 0; stroke-linejoin: miter; stroke-miterlimit: 10; fill: rgb(255,255,255); fill-rule: nonzero; opacity: 1;" vector-effect="non-scaling-stroke"  transform=" translate(-8.12, -22.19)" d="M 8.12359 22.5791 C 8.33639 22.5791 8.5089 22.4066 8.5089 22.1939 C 8.5089 21.981 8.33639 21.8086 8.12359 21.8086 C 7.91079 21.8086 7.73828 21.981 7.73828 22.1939 C 7.73828 22.4066 7.91079 22.5791 8.12359 22.5791 Z" stroke-linecap="round" />
</g>
		<g transform="matrix(1 0 0 1 -59.48 7.25)"  >
<path style="stroke: rgb(10,173,10); stroke-width: 1.28276; stroke-dasharray: none; stroke-linecap: round; stroke-dashoffset: 0; stroke-linejoin: miter; stroke-miterlimit: 10; fill: rgb(255,255,255); fill-rule: nonzero; opacity: 1;" vector-effect="non-scaling-stroke"  transform=" translate(-17.82, -22.19)" d="M 17.8222 24.8618 C 19.2956 24.8618 20.49 23.6674 20.49 22.194 C 20.49 20.7205 19.2956 19.526 17.8222 19.526 C 16.3487 19.526 15.1543 20.7205 15.1543 22.194 C 15.1543 23.6674 16.3487 24.8618 17.8222 24.8618 Z" stroke-linecap="round" />
</g>
		<g transform="matrix(1 0 0 1 -59.48 7.25)"  >
<path style="stroke: rgb(10,173,10); stroke-width: 1.06897; stroke-dasharray: none; stroke-linecap: round; stroke-dashoffset: 0; stroke-linejoin: miter; stroke-miterlimit: 10; fill: rgb(255,255,255); fill-rule: nonzero; opacity: 1;" vector-effect="non-scaling-stroke"  transform=" translate(-17.82, -22.19)" d="M 17.8223 22.5791 C 18.035 22.5791 18.2076 22.4066 18.2076 22.1938 C 18.2076 21.981 18.035 21.8085 17.8223 21.8085 C 17.6095 21.8085 17.437 21.981 17.437 22.1938 C 17.437 22.4066 17.6095 22.5791 17.8223 22.5791 Z" stroke-linecap="round" />
</g>
		<g transform="matrix(1 0 0 1 -64.25 -3.99)"  >
<path style="stroke: rgb(10,173,10); stroke-width: 1.28276; stroke-dasharray: none; stroke-linecap: round; stroke-dashoffset: 0; stroke-linejoin: miter; stroke-miterlimit: 10; fill: rgb(255,255,255); fill-rule: nonzero; opacity: 1;" vector-effect="non-scaling-stroke"  transform=" translate(-13.05, -10.96)" d="M 21.1874 16.152 L 7.14791 16.152 C 6.67788 16.152 6.26535 15.8261 6.13624 15.3519 L 3.75481 6.62879 C 3.63578 6.19381 3.94745 5.75989 4.37916 5.75989 L 22.3776 5.75989" stroke-linecap="round" />
</g>
		<g transform="matrix(1 0 0 1 -64.25 10.81)"  >
<path style="stroke: rgb(10,173,10); stroke-width: 1.28276; stroke-dasharray: none; stroke-linecap: round; stroke-dashoffset: 0; stroke-linejoin: miter; stroke-miterlimit: 10; fill: rgb(255,255,255); fill-rule: nonzero; opacity: 1;" vector-effect="non-scaling-stroke"  transform=" translate(-13.05, -25.76)" d="M 1 26.527 C 1 26.527 11.26 23.0552 25.1058 26.527" stroke-linecap="round" />
</g>
		<g transform="matrix(1 0 0 1 -34.6 0.72)"  >
<path style="stroke: none; stroke-width: 1; stroke-dasharray: none; stroke-linecap: butt; stroke-dashoffset: 0; stroke-linejoin: miter; stroke-miterlimit: 4; fill: rgb(255,255,255); fill-rule: nonzero; opacity: 1;" vector-effect="non-scaling-stroke"  transform=" translate(-42.7, -15.67)" d="M 36.5269 25 L 36.5269 6.34164 L 48.8807 6.34164 L 48.8807 9.59409 L 40.4717 9.59409 L 40.4717 14.04 L 48.0608 14.04 L 48.0608 17.2925 L 40.4717 17.2925 L 40.4717 25 L 36.5269 25 Z" stroke-linecap="round" />
</g>
		<g transform="matrix(1 0 0 1 -22.59 2.95)"  >
<path style="stroke: none; stroke-width: 1; stroke-dasharray: none; stroke-linecap: butt; stroke-dashoffset: 0; stroke-linejoin: miter; stroke-miterlimit: 4; fill: rgb(255,255,255); fill-rule: nonzero; opacity: 1;" vector-effect="non-scaling-stroke"  transform=" translate(-54.71, -17.9)" d="M 50.4661 25 L 50.4661 11.0062 L 54.2287 11.0062 L 54.2287 13.4478 L 54.3745 13.4478 C 54.6296 12.5793 55.0578 11.9233 55.6591 11.48 C 56.2604 11.0305 56.9528 10.8058 57.7363 10.8058 C 57.9306 10.8058 58.1402 10.8179 58.3649 10.8422 C 58.5896 10.8665 58.787 10.8999 58.9571 10.9424 L 58.9571 14.3862 C 58.7749 14.3316 58.5228 14.283 58.2009 14.2404 C 57.879 14.1979 57.5844 14.1767 57.3172 14.1767 C 56.7463 14.1767 56.2361 14.3012 55.7866 14.5502 C 55.3433 14.7932 54.991 15.1333 54.7298 15.5706 C 54.4747 16.0079 54.3472 16.512 54.3472 17.0829 L 54.3472 25 L 50.4661 25 Z" stroke-linecap="round" />
</g>
		<g transform="matrix(1 0 0 1 -11.64 3.1)"  >
<path style="stroke: none; stroke-width: 1; stroke-dasharray: none; stroke-linecap: butt; stroke-dashoffset: 0; stroke-linejoin: miter; stroke-miterlimit: 4; fill: rgb(255,255,255); fill-rule: nonzero; opacity: 1;" vector-effect="non-scaling-stroke"  transform=" translate(-65.66, -18.05)" d="M 65.92 25.2733 C 64.4805 25.2733 63.2415 24.9817 62.2029 24.3987 C 61.1704 23.8095 60.3747 22.9774 59.8159 21.9024 C 59.2572 20.8213 58.9778 19.5428 58.9778 18.0669 C 58.9778 16.6274 59.2572 15.3641 59.8159 14.2769 C 60.3747 13.1897 61.1613 12.3424 62.1756 11.7351 C 63.1959 11.1277 64.3924 10.824 65.7651 10.824 C 66.6883 10.824 67.5477 10.9728 68.3434 11.2704 C 69.1451 11.562 69.8436 12.0023 70.4388 12.5914 C 71.0401 13.1806 71.5078 13.9216 71.8418 14.8144 C 72.1759 15.7012 72.3429 16.7398 72.3429 17.9302 L 72.3429 18.9961 L 60.5266 18.9961 L 60.5266 16.591 L 68.6896 16.591 C 68.6896 16.0322 68.5681 15.5372 68.3251 15.1059 C 68.0822 14.6747 67.7451 14.3376 67.3139 14.0947 C 66.8887 13.8457 66.3937 13.7211 65.8289 13.7211 C 65.2397 13.7211 64.7174 13.8578 64.2619 14.1311 C 63.8124 14.3984 63.4601 14.7597 63.205 15.2153 C 62.95 15.6647 62.8194 16.1658 62.8133 16.7185 L 62.8133 19.0052 C 62.8133 19.6976 62.9408 20.2959 63.1959 20.8 C 63.4571 21.3041 63.8246 21.6928 64.2983 21.9662 C 64.7721 22.2395 65.3339 22.3761 65.9837 22.3761 C 66.415 22.3761 66.8098 22.3154 67.1681 22.1939 C 67.5265 22.0724 67.8332 21.8902 68.0883 21.6473 C 68.3434 21.4043 68.5377 21.1067 68.6713 20.7545 L 72.2609 20.9913 C 72.0787 21.8538 71.7051 22.6069 71.1403 23.2507 C 70.5815 23.8885 69.8588 24.3865 68.972 24.7449 C 68.0913 25.0971 67.074 25.2733 65.92 25.2733 Z" stroke-linecap="round" />
</g>
		<g transform="matrix(1 0 0 1 2.48 3.1)"  >
<path style="stroke: none; stroke-width: 1; stroke-dasharray: none; stroke-linecap: butt; stroke-dashoffset: 0; stroke-linejoin: miter; stroke-miterlimit: 4; fill: rgb(255,255,255); fill-rule: nonzero; opacity: 1;" vector-effect="non-scaling-stroke"  transform=" translate(-79.78, -18.05)" d="M 85.7492 14.9966 L 82.1961 15.2153 C 82.1353 14.9116 82.0048 14.6383 81.8043 14.3953 C 81.6039 14.1463 81.3397 13.9489 81.0117 13.8031 C 80.6898 13.6513 80.3041 13.5754 79.8547 13.5754 C 79.2534 13.5754 78.7462 13.7029 78.3332 13.958 C 77.9202 14.207 77.7137 14.5411 77.7137 14.9602 C 77.7137 15.2942 77.8473 15.5767 78.1146 15.8075 C 78.3818 16.0383 78.8404 16.2235 79.4903 16.3632 L 82.023 16.8734 C 83.3835 17.1528 84.3978 17.6022 85.0659 18.2217 C 85.734 18.8413 86.068 19.6551 86.068 20.6634 C 86.068 21.5805 85.7978 22.3852 85.2572 23.0776 C 84.7227 23.77 83.9878 24.3106 83.0525 24.6993 C 82.1232 25.0819 81.0512 25.2733 79.8365 25.2733 C 77.984 25.2733 76.5081 24.8876 75.4087 24.1162 C 74.3155 23.3388 73.6747 22.282 73.4864 20.9458 L 77.3037 20.7453 C 77.4191 21.3102 77.6985 21.7414 78.1419 22.039 C 78.5853 22.3306 79.1532 22.4763 79.8456 22.4763 C 80.5258 22.4763 81.0724 22.3458 81.4855 22.0846 C 81.9045 21.8173 82.1171 21.4742 82.1232 21.0551 C 82.1171 20.7028 81.9683 20.4143 81.6768 20.1896 C 81.3852 19.9588 80.9358 19.7827 80.3284 19.6612 L 77.905 19.1783 C 76.5385 18.905 75.5211 18.4313 74.853 17.7571 C 74.191 17.0829 73.86 16.2235 73.86 15.1788 C 73.86 14.2799 74.1029 13.5055 74.5888 12.8557 C 75.0808 12.2058 75.7701 11.7047 76.6569 11.3524 C 77.5497 11.0001 78.5944 10.824 79.7909 10.824 C 81.5583 10.824 82.9492 11.1975 83.9635 11.9446 C 84.9839 12.6917 85.5791 13.709 85.7492 14.9966 Z" stroke-linecap="round" />
</g>
		<g transform="matrix(1 0 0 1 16.92 0.72)"  >
<path style="stroke: none; stroke-width: 1; stroke-dasharray: none; stroke-linecap: butt; stroke-dashoffset: 0; stroke-linejoin: miter; stroke-miterlimit: 4; fill: rgb(255,255,255); fill-rule: nonzero; opacity: 1;" vector-effect="non-scaling-stroke"  transform=" translate(-94.22, -15.67)" d="M 91.6233 16.9098 L 91.6233 25 L 87.7423 25 L 87.7423 6.34164 L 91.514 6.34164 L 91.514 13.4752 L 91.678 13.4752 C 91.9938 12.6491 92.504 12.0023 93.2086 11.5346 C 93.9131 11.0609 94.7968 10.824 95.8597 10.824 C 96.8315 10.824 97.6788 11.0366 98.4016 11.4617 C 99.1304 11.8808 99.6952 12.4852 100.096 13.2747 C 100.503 14.0582 100.703 14.9966 100.697 16.0899 L 100.697 25 L 96.8163 25 L 96.8163 16.7823 C 96.8224 15.9198 96.6038 15.2487 96.1604 14.7689 C 95.7231 14.289 95.1096 14.0491 94.3201 14.0491 C 93.7916 14.0491 93.324 14.1615 92.917 14.3862 C 92.5162 14.6109 92.2003 14.9389 91.9695 15.3701 C 91.7448 15.7953 91.6294 16.3085 91.6233 16.9098 Z" stroke-linecap="round" />
</g>
		<g transform="matrix(1 0 0 1 33.82 0.72)"  >
<path style="stroke: none; stroke-width: 1; stroke-dasharray: none; stroke-linecap: butt; stroke-dashoffset: 0; stroke-linejoin: miter; stroke-miterlimit: 4; fill: rgb(255,255,255); fill-rule: nonzero; opacity: 1;" vector-effect="non-scaling-stroke"  transform=" translate(-111.12, -15.67)" d="M 119.518 12.8739 L 115.527 12.8739 C 115.454 12.3576 115.306 11.899 115.081 11.4982 C 114.856 11.0913 114.568 10.7451 114.215 10.4596 C 113.863 10.1741 113.456 9.95547 112.994 9.80363 C 112.539 9.65179 112.044 9.57587 111.509 9.57587 C 110.544 9.57587 109.703 9.81578 108.986 10.2956 C 108.269 10.7693 107.713 11.4617 107.319 12.3728 C 106.924 13.2778 106.726 14.3771 106.726 15.6708 C 106.726 17.0009 106.924 18.1185 107.319 19.0235 C 107.72 19.9284 108.278 20.6117 108.995 21.0733 C 109.712 21.5349 110.541 21.7657 111.482 21.7657 C 112.011 21.7657 112.499 21.6959 112.949 21.5562 C 113.404 21.4165 113.808 21.213 114.161 20.9458 C 114.513 20.6725 114.804 20.3414 115.035 19.9527 C 115.272 19.564 115.436 19.1206 115.527 18.6226 L 119.518 18.6408 C 119.414 19.4972 119.156 20.3232 118.743 21.1189 C 118.336 21.9085 117.787 22.616 117.094 23.2416 C 116.408 23.8611 115.588 24.3531 114.634 24.7175 C 113.687 25.0759 112.615 25.255 111.418 25.255 C 109.754 25.255 108.266 24.8785 106.954 24.1253 C 105.648 23.3722 104.616 22.282 103.857 20.8547 C 103.104 19.4274 102.727 17.6994 102.727 15.6708 C 102.727 13.6361 103.11 11.9051 103.875 10.4778 C 104.64 9.0505 105.679 7.96331 106.991 7.21625 C 108.303 6.46312 109.778 6.08655 111.418 6.08655 C 112.499 6.08655 113.502 6.23839 114.425 6.54207 C 115.354 6.84576 116.177 7.28913 116.894 7.87221 C 117.61 8.4492 118.194 9.15679 118.643 9.99495 C 119.099 10.8331 119.39 11.7928 119.518 12.8739 Z" stroke-linecap="round" />
</g>
		<g transform="matrix(1 0 0 1 49.81 3.1)"  >
<path style="stroke: none; stroke-width: 1; stroke-dasharray: none; stroke-linecap: butt; stroke-dashoffset: 0; stroke-linejoin: miter; stroke-miterlimit: 4; fill: rgb(255,255,255); fill-rule: nonzero; opacity: 1;" vector-effect="non-scaling-stroke"  transform=" translate(-127.11, -18.04)" d="M 125.494 25.2642 C 124.601 25.2642 123.806 25.1093 123.107 24.7995 C 122.409 24.4837 121.856 24.0191 121.449 23.4056 C 121.048 22.7861 120.848 22.0147 120.848 21.0915 C 120.848 20.3141 120.991 19.6612 121.276 19.1328 C 121.562 18.6044 121.95 18.1792 122.442 17.8573 C 122.934 17.5354 123.493 17.2925 124.119 17.1285 C 124.75 16.9645 125.412 16.8491 126.105 16.7823 C 126.919 16.6972 127.575 16.6183 128.073 16.5454 C 128.571 16.4664 128.932 16.351 129.157 16.1992 C 129.381 16.0474 129.494 15.8226 129.494 15.525 L 129.494 15.4704 C 129.494 14.8934 129.312 14.447 128.947 14.1311 C 128.589 13.8153 128.079 13.6574 127.417 13.6574 C 126.718 13.6574 126.162 13.8123 125.749 14.122 C 125.336 14.4257 125.063 14.8083 124.929 15.2699 L 121.34 14.9784 C 121.522 14.1281 121.88 13.3932 122.415 12.7737 C 122.949 12.1481 123.639 11.6682 124.483 11.3342 C 125.333 10.9941 126.317 10.824 127.435 10.824 C 128.212 10.824 128.956 10.9151 129.667 11.0973 C 130.384 11.2795 131.018 11.562 131.571 11.9446 C 132.13 12.3272 132.57 12.8192 132.892 13.4205 C 133.214 14.0157 133.375 14.7294 133.375 15.5615 L 133.375 25 L 129.694 25 L 129.694 23.0594 L 129.585 23.0594 C 129.36 23.4967 129.06 23.8824 128.683 24.2164 C 128.306 24.5444 127.854 24.8026 127.325 24.9908 C 126.797 25.1731 126.187 25.2642 125.494 25.2642 Z M 126.606 22.5857 C 127.177 22.5857 127.681 22.4733 128.118 22.2486 C 128.555 22.0178 128.899 21.708 129.148 21.3193 C 129.397 20.9306 129.521 20.4903 129.521 19.9983 L 129.521 18.5133 C 129.4 18.5922 129.233 18.6651 129.02 18.7319 C 128.814 18.7927 128.58 18.8504 128.319 18.905 C 128.057 18.9536 127.796 18.9992 127.535 19.0417 C 127.274 19.0781 127.037 19.1115 126.824 19.1419 C 126.369 19.2087 125.971 19.315 125.631 19.4608 C 125.291 19.6065 125.027 19.8039 124.838 20.0529 C 124.65 20.2959 124.556 20.5996 124.556 20.964 C 124.556 21.4924 124.747 21.8963 125.13 22.1757 C 125.519 22.449 126.011 22.5857 126.606 22.5857 Z" stroke-linecap="round" />
</g>
		<g transform="matrix(1 0 0 1 62.56 2.95)"  >
<path style="stroke: none; stroke-width: 1; stroke-dasharray: none; stroke-linecap: butt; stroke-dashoffset: 0; stroke-linejoin: miter; stroke-miterlimit: 4; fill: rgb(255,255,255); fill-rule: nonzero; opacity: 1;" vector-effect="non-scaling-stroke"  transform=" translate(-139.86, -17.9)" d="M 135.616 25 L 135.616 11.0062 L 139.379 11.0062 L 139.379 13.4478 L 139.525 13.4478 C 139.78 12.5793 140.208 11.9233 140.809 11.48 C 141.411 11.0305 142.103 10.8058 142.886 10.8058 C 143.081 10.8058 143.29 10.8179 143.515 10.8422 C 143.74 10.8665 143.937 10.8999 144.107 10.9424 L 144.107 14.3862 C 143.925 14.3316 143.673 14.283 143.351 14.2404 C 143.029 14.1979 142.735 14.1767 142.467 14.1767 C 141.896 14.1767 141.386 14.3012 140.937 14.5502 C 140.493 14.7932 140.141 15.1333 139.88 15.5706 C 139.625 16.0079 139.497 16.512 139.497 17.0829 L 139.497 25 L 135.616 25 Z" stroke-linecap="round" />
</g>
		<g transform="matrix(1 0 0 1 72.1 1.48)"  >
<path style="stroke: none; stroke-width: 1; stroke-dasharray: none; stroke-linecap: butt; stroke-dashoffset: 0; stroke-linejoin: miter; stroke-miterlimit: 4; fill: rgb(255,255,255); fill-rule: nonzero; opacity: 1;" vector-effect="non-scaling-stroke"  transform=" translate(-149.4, -16.43)" d="M 153.489 11.0062 L 153.489 13.9216 L 145.062 13.9216 L 145.062 11.0062 L 153.489 11.0062 Z M 146.975 7.65355 L 150.856 7.65355 L 150.856 20.6998 C 150.856 21.0581 150.911 21.3375 151.02 21.538 C 151.129 21.7323 151.281 21.869 151.476 21.9479 C 151.676 22.0269 151.907 22.0664 152.168 22.0664 C 152.35 22.0664 152.532 22.0512 152.715 22.0208 C 152.897 21.9844 153.036 21.957 153.134 21.9388 L 153.744 24.8269 C 153.55 24.8876 153.276 24.9574 152.924 25.0364 C 152.572 25.1214 152.144 25.173 151.64 25.1913 C 150.704 25.2277 149.884 25.1032 149.18 24.8177 C 148.481 24.5323 147.938 24.0889 147.549 23.4876 C 147.16 22.8863 146.969 22.1271 146.975 21.21 L 146.975 7.65355 Z" stroke-linecap="round" />
</g>
</g>
</g>
</svg>